<svg width="64" height="64" viewBox="0 0 64 64" fill="none" xmlns="http://www.w3.org/2000/svg">
<path d="M0 16.0023C0 7.1645 7.16449 0 16.0023 0H47.9976C56.8355 0 64 7.16449 64 16.0023V47.9976C64 56.8355 56.8355 64 47.9977 64H16.0023C7.1645 64 0 56.8355 0 47.9977V16.0023Z" fill="#2E6FFC"/>
<path d="M35.1905 35.1991L28.7922 28.8009" stroke="white" stroke-width="2.66556" stroke-linecap="round" stroke-linejoin="round"/>
<path d="M40.8649 44.6433C40.3651 45.1433 39.687 45.4243 38.9799 45.4244C38.2729 45.4246 37.5947 45.1438 37.0946 44.6439C36.5946 44.144 36.3136 43.466 36.3134 42.7589C36.3133 42.0518 36.5941 41.3737 37.094 40.8736L34.7386 43.2303C34.2385 43.7304 33.5603 44.0113 32.8531 44.0113C32.1459 44.0113 31.4677 43.7304 30.9676 43.2303C30.4676 42.7302 30.1866 42.052 30.1866 41.3448C30.1866 40.6376 30.4676 39.9594 30.9676 39.4593L39.4507 30.9763C39.9507 30.4762 40.629 30.1953 41.3361 30.1953C42.0433 30.1953 42.7216 30.4762 43.2216 30.9763C43.7217 31.4764 44.0026 32.1546 44.0026 32.8618C44.0026 33.569 43.7217 34.2472 43.2216 34.7473L40.8649 37.1026C41.365 36.6027 42.0432 36.322 42.7502 36.3221C43.4573 36.3222 44.1354 36.6032 44.6353 37.1033C45.1351 37.6034 45.4159 38.2815 45.4158 38.9886C45.4157 39.6957 45.1347 40.3737 44.6346 40.8736L40.8649 44.6433Z" stroke="white" stroke-width="2.66556" stroke-linecap="round" stroke-linejoin="round"/>
<path d="M44.6546 44.6632L42.7884 42.7971" stroke="white" stroke-width="2.66556" stroke-linecap="round" stroke-linejoin="round"/>
<path d="M21.1943 21.2029L19.3281 19.3368" stroke="white" stroke-width="2.66556" stroke-linecap="round" stroke-linejoin="round"/>
<path d="M24.532 33.0237C24.032 33.5238 23.3537 33.8047 22.6465 33.8047C21.9394 33.8047 21.2611 33.5238 20.7611 33.0237C20.261 32.5237 19.9801 31.8454 19.9801 31.1382C19.9801 30.431 20.261 29.7528 20.7611 29.2528L23.1178 26.8974C22.8701 27.1449 22.5762 27.3412 22.2527 27.4752C21.9293 27.6091 21.5826 27.678 21.2325 27.6779C20.5254 27.6778 19.8473 27.3968 19.3474 26.8967C19.0999 26.6491 18.9036 26.3552 18.7697 26.0317C18.6358 25.7082 18.5669 25.3615 18.5669 25.0114C18.567 24.3044 18.848 23.6263 19.3481 23.1264L23.1178 19.3568C23.6176 18.8567 24.2957 18.5757 25.0028 18.5756C25.3529 18.5755 25.6996 18.6444 26.023 18.7783C26.3465 18.9123 26.6405 19.1086 26.8881 19.3561C27.1357 19.6036 27.3321 19.8975 27.4661 20.2209C27.6002 20.5443 27.6692 20.891 27.6693 21.2411C27.6693 21.5912 27.6004 21.9379 27.4665 22.2614C27.3326 22.5849 27.1363 22.8788 26.8887 23.1264L29.2441 20.7697C29.7442 20.2696 30.4224 19.9887 31.1296 19.9887C31.8368 19.9887 32.515 20.2696 33.0151 20.7697C33.5151 21.2698 33.7961 21.948 33.7961 22.6552C33.7961 23.3624 33.5151 24.0406 33.0151 24.5407L24.532 33.0237Z" stroke="white" stroke-width="2.66556" stroke-linecap="round" stroke-linejoin="round"/>
</svg>
