<svg width="20" height="20" viewBox="0 0 20 20" fill="none" xmlns="http://www.w3.org/2000/svg">
<g clip-path="url(#clip0_1_28)">
<path d="M15.8333 9.16666H4.16667C3.2462 9.16666 2.5 9.91285 2.5 10.8333V16.6667C2.5 17.5871 3.2462 18.3333 4.16667 18.3333H15.8333C16.7538 18.3333 17.5 17.5871 17.5 16.6667V10.8333C17.5 9.91285 16.7538 9.16666 15.8333 9.16666Z" stroke="#99A1AF" stroke-width="1.66597" stroke-linecap="round" stroke-linejoin="round"/>
<path d="M5.83333 9.16668V5.83335C5.83333 4.72828 6.27232 3.66847 7.05372 2.88707C7.83512 2.10567 8.89493 1.66668 10 1.66668C11.1051 1.66668 12.1649 2.10567 12.9463 2.88707C13.7277 3.66847 14.1667 4.72828 14.1667 5.83335V9.16668" stroke="#99A1AF" stroke-width="1.66597" stroke-linecap="round" stroke-linejoin="round"/>
</g>
<defs>
<clipPath id="clip0_1_28">
<rect width="19.9917" height="19.9917" fill="white" transform="scale(1.00042)"/>
</clipPath>
</defs>
</svg>
